<mxfile host="app.diagrams.net" modified="2022-11-17T07:07:25.483Z" agent="5.0 (Windows NT 10.0; WOW64) AppleWebKit/537.36 (KHTML, like Gecko) Chrome/83.0.4103.97 Safari/537.36" etag="tpsROrGh-tgg2OAEZeK0" version="20.3.0" type="github">
  <diagram name="Page-1" id="2ca16b54-16f6-2749-3443-fa8db7711227">
    <mxGraphModel dx="1044" dy="1447" grid="1" gridSize="10" guides="1" tooltips="1" connect="1" arrows="1" fold="1" page="1" pageScale="1" pageWidth="1100" pageHeight="850" background="none" math="0" shadow="0">
      <root>
        <mxCell id="0" />
        <mxCell id="1" parent="0" />
        <mxCell id="Xeg_lpw1izDaZc9Ssng9-17" value="商管" style="swimlane;startSize=20;labelBackgroundColor=#00FF00;fillColor=#d5e8d4;strokeColor=#82b366;" vertex="1" parent="1">
          <mxGeometry x="867" y="166" width="200" height="100" as="geometry" />
        </mxCell>
        <mxCell id="Xeg_lpw1izDaZc9Ssng9-16" value="科小脉" style="swimlane;startSize=20;fillColor=#0050ef;strokeColor=#001DBC;fontColor=#ffffff;" vertex="1" parent="1">
          <mxGeometry x="635" y="166" width="200" height="100" as="geometry" />
        </mxCell>
        <mxCell id="Xeg_lpw1izDaZc9Ssng9-15" value="渠道" style="swimlane;startSize=20;fillColor=#FF0829;" vertex="1" parent="1">
          <mxGeometry x="402" y="166" width="200" height="100" as="geometry" />
        </mxCell>
        <mxCell id="Xeg_lpw1izDaZc9Ssng9-20" value="BOSS运营平台" style="swimlane;startSize=20;fillColor=#FF0829;" vertex="1" parent="1">
          <mxGeometry x="2" y="166" width="200" height="100" as="geometry" />
        </mxCell>
        <mxCell id="Xeg_lpw1izDaZc9Ssng9-23" value="经销商E助手" style="swimlane;startSize=20;fillColor=#FF0829;" vertex="1" parent="1">
          <mxGeometry x="202" y="166" width="200" height="100" as="geometry" />
        </mxCell>
        <mxCell id="Xeg_lpw1izDaZc9Ssng9-31" value="" style="swimlane;startSize=0;labelBackgroundColor=#FFFFFF;fillColor=#FFFFFF;" vertex="1" parent="1">
          <mxGeometry x="2" y="116" width="600" height="230" as="geometry" />
        </mxCell>
        <mxCell id="Xeg_lpw1izDaZc9Ssng9-33" value="暂未接入" style="text;html=1;strokeColor=none;fillColor=none;align=center;verticalAlign=middle;whiteSpace=wrap;rounded=0;labelBackgroundColor=#FFFFFF;fontColor=#000800;" vertex="1" parent="Xeg_lpw1izDaZc9Ssng9-31">
          <mxGeometry x="38" y="14" width="60" height="30" as="geometry" />
        </mxCell>
        <mxCell id="Xeg_lpw1izDaZc9Ssng9-42" value="调用方标识6" style="text;html=1;align=center;verticalAlign=middle;resizable=0;points=[];autosize=1;strokeColor=none;fillColor=none;fontColor=#000800;" vertex="1" parent="Xeg_lpw1izDaZc9Ssng9-31">
          <mxGeometry x="250" y="89" width="100" height="30" as="geometry" />
        </mxCell>
        <mxCell id="Xeg_lpw1izDaZc9Ssng9-43" value="调用方标识2" style="text;html=1;align=center;verticalAlign=middle;resizable=0;points=[];autosize=1;strokeColor=none;fillColor=none;fontColor=#000800;" vertex="1" parent="Xeg_lpw1izDaZc9Ssng9-31">
          <mxGeometry x="428" y="89" width="100" height="30" as="geometry" />
        </mxCell>
        <mxCell id="Xeg_lpw1izDaZc9Ssng9-32" value="应用中心" style="swimlane;startSize=20;fillColor=#FFFFFF;strokeColor=#000000;fontColor=#000800;" vertex="1" parent="1">
          <mxGeometry x="476" y="689" width="200" height="100" as="geometry" />
        </mxCell>
        <mxCell id="Xeg_lpw1izDaZc9Ssng9-35" value="" style="swimlane;startSize=0;labelBackgroundColor=#FFFFFF;strokeColor=#000000;fontColor=#000800;fillColor=#FFFFFF;" vertex="1" parent="1">
          <mxGeometry x="602" y="116" width="258" height="230" as="geometry" />
        </mxCell>
        <mxCell id="Xeg_lpw1izDaZc9Ssng9-37" value="本期需求" style="text;html=1;strokeColor=none;fillColor=none;align=center;verticalAlign=middle;whiteSpace=wrap;rounded=0;labelBackgroundColor=#FFFFFF;fontColor=#000800;" vertex="1" parent="Xeg_lpw1izDaZc9Ssng9-35">
          <mxGeometry x="28" y="14" width="60" height="30" as="geometry" />
        </mxCell>
        <mxCell id="Xeg_lpw1izDaZc9Ssng9-44" value="调用方标识18" style="text;html=1;align=center;verticalAlign=middle;resizable=0;points=[];autosize=1;strokeColor=none;fillColor=none;fontColor=#000800;" vertex="1" parent="Xeg_lpw1izDaZc9Ssng9-35">
          <mxGeometry x="88" y="89" width="100" height="30" as="geometry" />
        </mxCell>
        <mxCell id="Xeg_lpw1izDaZc9Ssng9-38" value="" style="swimlane;startSize=0;labelBackgroundColor=#FFFFFF;strokeColor=#000000;fontColor=#000800;fillColor=#FFFFFF;" vertex="1" parent="1">
          <mxGeometry x="860" y="116" width="258" height="230" as="geometry" />
        </mxCell>
        <mxCell id="Xeg_lpw1izDaZc9Ssng9-39" value="已实现" style="text;html=1;strokeColor=none;fillColor=none;align=center;verticalAlign=middle;whiteSpace=wrap;rounded=0;labelBackgroundColor=#FFFFFF;fontColor=#000800;" vertex="1" parent="Xeg_lpw1izDaZc9Ssng9-38">
          <mxGeometry x="28" y="14" width="60" height="30" as="geometry" />
        </mxCell>
        <mxCell id="Xeg_lpw1izDaZc9Ssng9-45" value="调用方标识17" style="text;html=1;align=center;verticalAlign=middle;resizable=0;points=[];autosize=1;strokeColor=none;fillColor=none;fontColor=#000800;" vertex="1" parent="Xeg_lpw1izDaZc9Ssng9-38">
          <mxGeometry x="50" y="94" width="100" height="30" as="geometry" />
        </mxCell>
        <mxCell id="Xeg_lpw1izDaZc9Ssng9-41" value="调用方标识1&lt;br&gt;" style="text;html=1;align=center;verticalAlign=middle;resizable=0;points=[];autosize=1;strokeColor=none;fillColor=none;fontColor=#000800;" vertex="1" parent="1">
          <mxGeometry x="90" y="205" width="100" height="30" as="geometry" />
        </mxCell>
        <mxCell id="Xeg_lpw1izDaZc9Ssng9-49" value="" style="html=1;shadow=0;dashed=0;align=center;verticalAlign=middle;shape=mxgraph.arrows2.arrow;dy=0.6;dx=40;direction=south;notch=0;labelBackgroundColor=#FFFFFF;strokeColor=#000000;fontColor=#000800;fillColor=#FFFFFF;" vertex="1" parent="1">
          <mxGeometry x="539" y="587" width="70" height="100" as="geometry" />
        </mxCell>
        <mxCell id="Xeg_lpw1izDaZc9Ssng9-50" value="&lt;span style=&quot;background-color: rgb(255, 255, 255);&quot;&gt;销售订单下单&lt;/span&gt;" style="strokeWidth=2;html=1;shape=mxgraph.flowchart.start_1;whiteSpace=wrap;labelBackgroundColor=#00FF00;fillColor=#FFFFFF;" vertex="1" parent="1">
          <mxGeometry x="516" y="-45" width="100" height="60" as="geometry" />
        </mxCell>
        <mxCell id="Xeg_lpw1izDaZc9Ssng9-51" value="" style="html=1;shadow=0;dashed=0;align=center;verticalAlign=middle;shape=mxgraph.arrows2.arrow;dy=0.6;dx=40;direction=south;notch=0;labelBackgroundColor=#FFFFFF;strokeColor=#000000;fontColor=#000800;fillColor=#FFFFFF;" vertex="1" parent="1">
          <mxGeometry x="531" y="16" width="70" height="100" as="geometry" />
        </mxCell>
        <mxCell id="Xeg_lpw1izDaZc9Ssng9-52" value="" style="html=1;shadow=0;dashed=0;align=center;verticalAlign=middle;shape=mxgraph.arrows2.arrow;dy=0.6;dx=40;direction=south;notch=0;labelBackgroundColor=#FFFFFF;strokeColor=#000000;fontColor=#000800;fillColor=#FFFFFF;" vertex="1" parent="1">
          <mxGeometry x="539" y="346" width="70" height="100" as="geometry" />
        </mxCell>
        <mxCell id="Xeg_lpw1izDaZc9Ssng9-53" value="组装下单数据" style="rounded=0;whiteSpace=wrap;html=1;labelBackgroundColor=#FFFFFF;strokeColor=#000000;fontColor=#000800;fillColor=#FFFFFF;" vertex="1" parent="1">
          <mxGeometry x="444" y="446" width="260" height="140" as="geometry" />
        </mxCell>
      </root>
    </mxGraphModel>
  </diagram>
</mxfile>
